<?xml version="1.0" encoding="utf-8"?>
<!-- Generator: Adobe Illustrator 26.0.3, SVG Export Plug-In . SVG Version: 6.00 Build 0)  -->
<svg version="1.1" id="yellow_book" xmlns="http://www.w3.org/2000/svg" xmlns:xlink="http://www.w3.org/1999/xlink" x="0px"
	 y="0px" viewBox="0 0 316.44 200.85" style="enable-background:new 0 0 316.44 200.85;" xml:space="preserve">
<style type="text/css">
	.st0{fill:#F4A041;}
	.st1{fill:#7B91FF;}
	.st2{fill:#FFFFFF;}
	.st3{fill:none;stroke:#000000;stroke-miterlimit:10;}
</style>
<path class="st0" d="M309.33,16.6H16.6v167.66H0c0,9.17,7.43,16.6,16.6,16.6h0h292.74c3.92,0,7.11-3.18,7.11-7.11V23.7
	C316.44,19.78,313.26,16.6,309.33,16.6z"/>
<path class="st1" d="M0,184.26"/>
<path class="st2" d="M306.06,22.81L291.54,8.3H0v167.66l15.56,15.56c0.67,0.67,1.57,1.04,2.51,1.04h282.97
	c3.92,0,7.11-3.18,7.11-7.11V27.84C308.14,25.95,307.39,24.15,306.06,22.81z"/>
<path class="st0" d="M289.84,184.26H0V5c0-2.76,2.24-5,5-5h284.84c5.52,0,10,4.48,10,10v164.26
	C299.84,179.78,295.37,184.26,289.84,184.26z"/>
<line class="st3" x1="8.3" y1="184.26" x2="8.3" y2="0"/>
</svg>
